<?xml version="1.0" encoding="UTF-8"?>
<svg id="Layer_2" data-name="Layer 2" xmlns="http://www.w3.org/2000/svg" viewBox="0 0 695.99 212.89">
  <defs>
    <style>
      .cls-1 {
        fill: #137baa;
      }

      .cls-2 {
        fill: #67b9e8;
      }

      .cls-3 {
        fill: #146d3a;
      }

      .cls-4 {
        fill: #8fc444;
      }
    </style>
  </defs>
  <g id="Layer_1-2" data-name="Layer 1">
    <g>
      <g>
        <path class="cls-4" d="M552.2,206.87v5.25c0,.39-.1.5-.5.5h-1.94c-.39,0-.5-.1-.5-.5v-13.48c0-.39.12-.5.5-.5h5.09c2.4,0,5.23.99,5.23,4.34s-2.83,4.38-5.23,4.38h-2.65ZM554.74,204.41c1.8,0,2.48-.72,2.48-1.92s-.68-1.9-2.48-1.9h-2.54v3.82h2.54Z"/>
        <path class="cls-4" d="M570.84,206.58l3.6,5.4c.27.46-.04.64-.43.64h-1.8c-.39,0-.62-.14-.85-.5l-3.49-5.25h-1.8v5.25c0,.39-.12.5-.5.5h-1.94c-.37,0-.5-.1-.5-.5v-13.48c0-.39.12-.5.5-.5h5.11c2.36,0,5.21.99,5.21,4.34,0,2.36-1.38,3.58-3.1,4.09ZM568.63,204.41c1.7,0,2.46-.64,2.46-1.92s-.85-1.9-2.46-1.9h-2.56v3.82h2.56Z"/>
        <path class="cls-4" d="M584.47,197.87c4.07,0,7.44,3.39,7.44,7.51s-3.37,7.51-7.44,7.51-7.42-3.39-7.42-7.51,3.35-7.51,7.42-7.51ZM584.47,210.34c2.81,0,4.47-2.5,4.47-4.96s-1.66-4.96-4.47-4.96-4.45,2.46-4.45,4.96,1.72,4.96,4.45,4.96Z"/>
        <path class="cls-4" d="M597.74,205.38c0,2.46,1.72,4.96,4.45,4.96,1.12,0,2.21-.39,2.96-.95v-2.17h-2.48c-.37,0-.5-.12-.5-.52v-1.49c0-.39.1-.5.5-.5h4.92c.39,0,.5.1.5.5v4.76c0,.33-.1.52-.33.75-1.37,1.34-3.54,2.17-5.56,2.17-4.07,0-7.42-3.39-7.42-7.51s3.35-7.51,7.42-7.51c2.01,0,4.07.83,5.42,2.13.27.27.21.41-.06.7l-1.12,1.22c-.25.27-.41.33-.7.04-.91-.95-2.15-1.55-3.54-1.55-2.73,0-4.45,2.46-4.45,4.96Z"/>
        <path class="cls-4" d="M619.67,206.58l3.6,5.4c.27.46-.04.64-.43.64h-1.8c-.39,0-.62-.14-.85-.5l-3.49-5.25h-1.8v5.25c0,.39-.12.5-.5.5h-1.94c-.37,0-.5-.1-.5-.5v-13.48c0-.39.12-.5.5-.5h5.11c2.36,0,5.21.99,5.21,4.34,0,2.36-1.38,3.58-3.1,4.09ZM617.46,204.41c1.7,0,2.46-.64,2.46-1.92s-.85-1.9-2.46-1.9h-2.56v3.82h2.56Z"/>
        <path class="cls-4" d="M640.22,212.12c.12.25-.04.5-.31.5h-2.29c-.33,0-.43-.1-.64-.5l-1.22-2.48h-6.16l-1.24,2.48c-.19.39-.31.5-.64.5h-2.3c-.27,0-.41-.25-.31-.5l7.14-13.77c.17-.31.23-.5.39-.5h.06c.17,0,.23.19.41.5l7.11,13.77ZM632.65,202.79l-2.07,4.34h4.18l-2.07-4.34h-.04Z"/>
        <path class="cls-4" d="M652.11,212.39c-.19.31-.33.5-.52.5h-.23c-.19,0-.31-.19-.52-.5l-4.61-7.44-.87,7.18c-.04.39-.1.5-.5.5h-1.94c-.39,0-.54-.12-.5-.5l1.78-14.06c.02-.14.04-.19.19-.19h.15c.08,0,.14.04.25.19l6.7,10.48,6.7-10.48c.1-.14.17-.19.25-.19h.14c.14,0,.17.04.19.19l1.76,14.06c.04.37-.1.5-.5.5h-1.94c-.39,0-.46-.1-.5-.5l-.79-7.24-4.69,7.51Z"/>
        <path class="cls-4" d="M673.34,212.39c-.19.31-.33.5-.52.5h-.23c-.19,0-.31-.19-.52-.5l-4.61-7.44-.87,7.18c-.04.39-.1.5-.5.5h-1.94c-.39,0-.54-.12-.5-.5l1.78-14.06c.02-.14.04-.19.19-.19h.15c.08,0,.14.04.25.19l6.7,10.48,6.7-10.48c.1-.14.17-.19.25-.19h.14c.14,0,.17.04.19.19l1.76,14.06c.04.37-.1.5-.5.5h-1.94c-.39,0-.46-.1-.5-.5l-.79-7.24-4.69,7.51Z"/>
        <path class="cls-4" d="M685.99,212.62c-.37,0-.5-.1-.5-.5v-13.48c0-.37.12-.5.5-.5h9.35c.39,0,.5.12.5.5v1.51c0,.37-.1.5-.5.5h-6.91v3.43h6.62c.39,0,.5.12.5.5v1.51c0,.39-.1.5-.5.5h-6.62v3.54h6.91c.39,0,.5.12.5.5v1.51c0,.39-.1.5-.5.5h-9.35Z"/>
      </g>
      <g>
        <path class="cls-3" d="M269.08,39.24c-2.15,3.79-5.33,6.79-9.54,9.02-4.21,2.22-9.29,3.33-15.27,3.33h-9.17v23.45h-23.14V1.25h32.31c9.03,0,15.96,2.29,20.79,6.88,4.83,4.59,7.24,10.74,7.24,18.45,0,4.66-1.08,8.88-3.23,12.66ZM248.86,26.58c0-4.52-2.4-6.77-7.19-6.77h-6.57v13.55h6.57c4.79,0,7.19-2.26,7.19-6.77Z"/>
        <path class="cls-3" d="M314.1,75.04l-13.86-26.47h-.1v26.47h-23.14V1.25h34.4c5.98,0,11.08,1.06,15.32,3.18,4.24,2.12,7.42,5,9.54,8.65,2.12,3.65,3.18,7.76,3.18,12.35,0,4.93-1.37,9.31-4.12,13.13-2.75,3.82-6.69,6.57-11.83,8.23l16.05,28.25h-25.43ZM300.13,33.14h9.17c2.22,0,3.89-.5,5-1.51,1.11-1.01,1.67-2.59,1.67-4.74,0-1.94-.57-3.47-1.72-4.59-1.15-1.11-2.8-1.67-4.95-1.67h-9.17v12.51Z"/>
        <path class="cls-3" d="M361.06,70.87c-5.8-3.27-10.41-7.78-13.81-13.55-3.4-5.77-5.11-12.26-5.11-19.49s1.7-13.72,5.11-19.49c3.4-5.77,8.01-10.27,13.81-13.5,5.8-3.23,12.18-4.85,19.13-4.85s13.31,1.62,19.07,4.85c5.77,3.23,10.34,7.73,13.71,13.5,3.37,5.77,5.05,12.26,5.05,19.49s-1.69,13.72-5.05,19.49c-3.37,5.77-7.96,10.28-13.76,13.55-5.8,3.27-12.14,4.9-19.02,4.9s-13.32-1.63-19.13-4.9ZM390.81,49.77c2.5-2.95,3.75-6.93,3.75-11.93s-1.25-9.08-3.75-12.04c-2.5-2.95-6.05-4.43-10.63-4.43s-8.23,1.48-10.74,4.43c-2.5,2.95-3.75,6.97-3.75,12.04s1.25,8.98,3.75,11.93c2.5,2.95,6.08,4.43,10.74,4.43s8.13-1.48,10.63-4.43Z"/>
        <path class="cls-3" d="M474.77,5.94c5.8,3.13,10.27,7.47,13.39,13.03,3.13,5.56,4.69,11.88,4.69,18.97s-1.56,13.34-4.69,18.97c-3.13,5.63-7.59,10.06-13.39,13.29-5.8,3.23-12.56,4.85-20.27,4.85h-30.75V1.25h30.75c7.71,0,14.47,1.56,20.27,4.69ZM464.81,50.13c3.06-2.85,4.59-6.91,4.59-12.19s-1.53-9.35-4.59-12.19c-3.06-2.85-7.19-4.27-12.4-4.27h-5.52v32.94h5.52c5.21,0,9.35-1.42,12.4-4.27Z"/>
        <path class="cls-3" d="M521.2,1.25v41.59c0,3.41.75,6.1,2.24,8.08,1.49,1.98,3.91,2.97,7.24,2.97s5.8-.99,7.4-2.97c1.6-1.98,2.4-4.67,2.4-8.08V1.25h23.03v41.59c0,7.02-1.46,13.01-4.38,17.98-2.92,4.97-6.91,8.7-11.99,11.2-5.07,2.5-10.74,3.75-16.99,3.75s-11.8-1.25-16.62-3.75c-4.83-2.5-8.6-6.22-11.31-11.15-2.71-4.93-4.06-10.94-4.06-18.03V1.25h23.03Z"/>
        <path class="cls-3" d="M573.26,18.55c2.95-5.7,7.17-10.13,12.66-13.29,5.49-3.16,11.95-4.74,19.39-4.74,6.39,0,12.11,1.2,17.15,3.6,5.04,2.4,9.14,5.78,12.3,10.16,3.16,4.38,5.26,9.48,6.31,15.32h-24.39c-1.11-2.43-2.69-4.33-4.74-5.68-2.05-1.36-4.4-2.03-7.04-2.03-3.89,0-6.97,1.46-9.22,4.38-2.26,2.92-3.39,6.84-3.39,11.78s1.13,8.86,3.39,11.78c2.26,2.92,5.33,4.38,9.22,4.38,2.64,0,4.99-.68,7.04-2.03,2.05-1.36,3.63-3.25,4.74-5.68h24.39c-1.04,5.84-3.14,10.94-6.31,15.32-3.16,4.38-7.26,7.76-12.3,10.16-5.04,2.4-10.75,3.6-17.15,3.6-7.44,0-13.9-1.58-19.39-4.74-5.49-3.16-9.71-7.59-12.66-13.29-2.95-5.7-4.43-12.19-4.43-19.49s1.48-13.79,4.43-19.49Z"/>
        <path class="cls-3" d="M669.93,19.7v9.07h22.93v17.41h-22.93v10.42h26.06v18.45h-49.2V1.25h49.2v18.45h-26.06Z"/>
      </g>
      <g>
        <path class="cls-3" d="M293.66,165.02h28.27v22.2h-57.6v-93.54h29.33v71.34Z"/>
        <path class="cls-3" d="M387.86,173.08h-31.18l-4.62,14.14h-30.78l34.22-93.54h33.82l34.09,93.54h-30.92l-4.62-14.14ZM380.73,151.02l-8.46-26.03-8.46,26.03h16.91Z"/>
        <path class="cls-3" d="M484.05,125.65c-1.15-1.85-2.77-3.28-4.89-4.29-2.11-1.01-4.67-1.52-7.66-1.52-5.64,0-10,1.83-13.08,5.48-3.08,3.66-4.62,8.65-4.62,15,0,7.31,1.72,12.77,5.15,16.38,3.44,3.61,8.72,5.42,15.85,5.42s12.24-2.73,16.38-8.19h-23.39v-20.74h47.7v29.33c-4.05,6.96-9.64,12.93-16.78,17.9-7.13,4.98-16.16,7.46-27.08,7.46-9.69,0-18.12-2-25.3-6.01-7.18-4.01-12.68-9.62-16.52-16.85-3.83-7.22-5.75-15.46-5.75-24.71s1.92-17.48,5.75-24.71c3.83-7.22,9.31-12.84,16.45-16.85,7.13-4.01,15.5-6.01,25.1-6.01,12.24,0,22.22,2.95,29.93,8.85,7.71,5.9,12.26,13.92,13.67,24.05h-30.92Z"/>
        <path class="cls-3" d="M544.09,181.93c-7.36-4.14-13.19-9.86-17.51-17.18-4.32-7.31-6.47-15.55-6.47-24.71s2.16-17.39,6.47-24.71c4.31-7.31,10.15-13.01,17.51-17.11,7.35-4.1,15.44-6.14,24.24-6.14s16.87,2.05,24.18,6.14c7.31,4.1,13.1,9.8,17.37,17.11,4.27,7.31,6.41,15.55,6.41,24.71s-2.14,17.4-6.41,24.71c-4.27,7.31-10.09,13.04-17.44,17.18-7.36,4.14-15.39,6.21-24.11,6.21s-16.89-2.07-24.24-6.21ZM581.81,155.18c3.17-3.74,4.76-8.79,4.76-15.13s-1.59-11.52-4.76-15.26c-3.17-3.74-7.66-5.62-13.48-5.62s-10.44,1.87-13.61,5.62c-3.17,3.74-4.76,8.83-4.76,15.26s1.59,11.38,4.76,15.13c3.17,3.74,7.71,5.62,13.61,5.62s10.31-1.87,13.48-5.62Z"/>
        <path class="cls-3" d="M632.48,180.28c-7.27-5.24-11.21-12.93-11.82-23.05h31.18c.44,5.37,2.82,8.06,7.13,8.06,1.59,0,2.93-.37,4.03-1.12,1.1-.75,1.65-1.92,1.65-3.5,0-2.2-1.19-3.98-3.57-5.35-2.38-1.36-6.08-2.93-11.1-4.69-5.99-2.11-10.95-4.18-14.86-6.21-3.92-2.03-7.29-4.98-10.11-8.85-2.82-3.88-4.18-8.85-4.1-14.93,0-6.08,1.56-11.25,4.69-15.52,3.13-4.27,7.4-7.51,12.82-9.71,5.42-2.2,11.52-3.3,18.3-3.3,11.45,0,20.54,2.64,27.28,7.93,6.74,5.28,10.28,12.73,10.64,22.33h-31.58c-.09-2.64-.75-4.54-1.98-5.68-1.23-1.14-2.73-1.72-4.49-1.72-1.23,0-2.25.42-3.04,1.26-.79.84-1.19,2-1.19,3.5,0,2.11,1.17,3.85,3.5,5.22,2.33,1.37,6.05,3.02,11.16,4.95,5.9,2.2,10.77,4.32,14.6,6.34,3.83,2.03,7.16,4.84,9.98,8.46,2.82,3.61,4.23,8.15,4.23,13.61,0,5.73-1.41,10.86-4.23,15.39-2.82,4.54-6.92,8.08-12.29,10.64-5.37,2.56-11.76,3.83-19.16,3.83-11.19,0-20.41-2.62-27.68-7.86Z"/>
      </g>
      <g>
        <path class="cls-2" d="M213.34,159.78h8.17v12.91h4.55v-9.29h7.76v9.29h12.4v10.31h-32.88v-23.22Z"/>
        <path class="cls-2" d="M244.37,149.96c-1.45,2.59-3.47,4.64-6.04,6.15-2.57,1.52-5.47,2.28-8.69,2.28s-6.11-.76-8.69-2.28c-2.57-1.52-4.58-3.57-6.01-6.15-1.44-2.59-2.16-5.43-2.16-8.52s.72-5.93,2.16-8.5c1.44-2.57,3.44-4.61,6.01-6.11,2.57-1.5,5.47-2.25,8.69-2.25s6.12.75,8.69,2.25c2.57,1.5,4.58,3.55,6.04,6.13,1.46,2.59,2.18,5.41,2.18,8.48s-.73,5.94-2.18,8.52ZM234.96,136.7c-1.32-1.11-3.09-1.67-5.32-1.67s-4.05.56-5.36,1.67c-1.32,1.11-1.97,2.69-1.97,4.74s.66,3.67,1.97,4.78c1.32,1.11,3.1,1.67,5.36,1.67s4-.56,5.32-1.67c1.32-1.11,1.97-2.71,1.97-4.78s-.66-3.62-1.97-4.74Z"/>
        <path class="cls-2" d="M246.23,105.48l-11.8,6.18v.05h11.8v10.31h-32.88v-15.33c0-2.66.47-4.94,1.42-6.83.95-1.89,2.23-3.3,3.86-4.25,1.63-.94,3.46-1.42,5.5-1.42,2.2,0,4.15.61,5.85,1.83,1.7,1.22,2.93,2.98,3.67,5.27l12.59-7.15v11.33ZM227.55,111.71v-4.09c0-.99-.22-1.73-.67-2.23-.45-.49-1.15-.74-2.11-.74-.87,0-1.55.26-2.04.77-.49.51-.74,1.25-.74,2.21v4.09h5.57Z"/>
      </g>
      <g>
        <path class="cls-1" d="M155.29,160.16c-16.63,1.35-34.97-1.42-54.52-8.21-24.86-8.65-49.07-8.46-71.96.57l-5.49,2.17,4.08,4.27c6.29,6.58,13.61,12.24,21.77,16.83,14.56,8.2,30.79,12.36,48.23,12.36s33.4-4.16,47.97-12.36c4.52-2.55,8.8-5.43,12.72-8.56l10.12-8.1-12.93,1.04ZM141.48,168.86c-13.36,7.53-28.2,11.34-44.08,11.34s-30.97-3.82-44.33-11.34c-5.62-3.16-10.8-6.86-15.46-11.06.56-.18,1.12-.35,1.68-.52.26-.08.52-.16.79-.23.57-.17,1.13-.33,1.7-.48.28-.08.56-.15.84-.22.28-.07.56-.15.84-.21,1.12-.28,2.25-.53,3.37-.76.57-.12,1.13-.23,1.69-.33.28-.05.56-.11.84-.15.57-.1,1.14-.2,1.71-.28.2-.03.39-.06.59-.09.71-.11,1.42-.21,2.13-.29.23-.03.46-.06.69-.08.32-.04.64-.08.96-.11.31-.04.63-.07.94-.1.4-.04.8-.07,1.2-.11.21-.02.43-.03.65-.05,1.15-.09,2.3-.15,3.45-.19.25,0,.5-.02.75-.02.19,0,.38-.01.57-.01.25,0,.5-.01.75-.01.35,0,.7,0,1.05,0,10.9,0,22.04,1.96,33.33,5.89.48.17.97.33,1.45.5.4.14.81.27,1.21.4.77.26,1.53.51,2.3.75.48.16.96.3,1.43.45.01,0,.03.01.04.01.39.12.79.24,1.18.36.39.12.77.24,1.16.35.43.13.86.25,1.29.37.47.13.95.27,1.42.4.47.13.95.26,1.42.39,1.42.38,2.83.74,4.23,1.07.46.11.93.22,1.39.33.4.09.81.19,1.22.28.32.07.65.14.97.21.45.1.91.19,1.36.28.45.09.9.19,1.34.27.11.03.22.04.33.07.39.08.77.15,1.16.22.1.02.2.04.3.06.49.09.98.18,1.46.26,2.6.45,5.18.83,7.73,1.12.43.05.87.1,1.3.15.49.05.99.1,1.48.15.99.1,1.97.18,2.95.25,1.38.1,2.75.17,4.11.23-.3.17-.61.35-.91.52Z"/>
        <path class="cls-2" d="M180.75,135.79c-8.6,3.43-18.39,5.16-29.65,5.16-16.56,0-36.29-3.73-60.1-11.25-26.64-8.41-52.4-6.32-76.57,6.21l-3.65-7.05c11.44-5.94,23.49-9.74,35.8-11.3,15.31-1.95,31.06-.41,46.81,4.57,38.16,12.05,64.98,14.05,84.42,6.29l2.94,7.37Z"/>
        <path class="cls-4" d="M178.77,46.35c-8.49-14.51-20.14-25.99-34.65-34.12C129.62,4.12,113.44,0,96.02,0s-33.64,4.11-48.21,12.23c-14.6,8.13-26.34,19.61-34.9,34.11C4.34,60.84,0,77.39,0,95.52c0,5.55.41,11.01,1.21,16.24l.88,5.74,5.03-2.9c13.2-7.62,32.58-15,56.56-13.27,1.04.07,2.09.17,3.15.27,1.04.11,2.08.24,3.13.38,1.24.17,2.49.36,3.75.58l16.85,4.45-.22-.22c.16.05.32.1.48.14,0,0,.01,0,.02,0,.42.13.85.26,1.27.39l-.07.07,2.79.74c.24.07.47.14.71.21.6.18,1.19.35,1.78.52,19.26,5.51,35.55,8.27,49.59,8.41.38,0,.76,0,1.14,0,3.14,0,6.18-.13,9.1-.4.49-.04.97-.09,1.45-.14.99-.11,1.96-.23,2.93-.36,3.53-.51,6.9-1.22,10.12-2.15.58-.17,1.16-.35,1.74-.53.45-.14.9-.29,1.34-.44.41-.14.83-.29,1.24-.44,0,0,0,0,0,0,1.22-.45,2.43-.93,3.61-1.45h0c1.18-.52,2.33-1.07,3.47-1.65,2.27-1.17,4.45-2.49,6.55-3.94l1.57-1.09.13-1.91c.15-2.33.23-4.77.23-7.25,0-18.12-4.3-34.65-12.77-49.17ZM183.49,100.3h0s-.09.06-.14.08c-.21.13-.41.26-.62.38-.06.04-.12.08-.18.11-.23.14-.46.28-.68.41-.11.07-.21.13-.32.19-.17.1-.34.2-.52.3-.16.09-.33.18-.49.27-.13.07-.26.14-.39.21-.18.1-.36.19-.54.29-.16.08-.33.17-.51.26-.19.09-.37.19-.56.28-.1.05-.2.1-.3.15-.19.09-.37.18-.56.27-.22.1-.44.21-.67.3-.04.02-.08.04-.12.05-.27.13-.55.25-.82.36-.08.04-.17.08-.25.11-.27.12-.55.23-.83.34-.33.14-.67.27-1.01.4-.49.19-.99.37-1.5.55s-1.02.35-1.54.51c-.38.13-.77.24-1.15.35-.36.11-.72.21-1.08.31-.36.1-.73.2-1.1.29-.42.11-.83.21-1.25.31-.42.1-.85.2-1.27.28-.28.06-.57.12-.86.18-.22.04-.43.09-.65.13-.44.08-.87.16-1.32.24-.22.04-.44.07-.66.11-.3.05-.59.09-.89.14-.39.06-.78.12-1.17.17-.02,0-.04,0-.07,0-.39.06-.79.1-1.19.14-.38.05-.76.09-1.15.13-.06,0-.12.02-.17.02-.8.08-1.6.15-2.42.2-.85.06-1.7.11-2.57.14-.33.01-.65.03-.98.03-.33,0-.66.02-.99.03-.21,0-.42,0-.63.01-.12,0-.25,0-.37,0-.17,0-.34,0-.51,0-.29,0-.58,0-.88,0-.06,0-.13,0-.19,0-.46,0-.93,0-1.4-.02h-.12c-.47,0-.95-.02-1.43-.04-.04,0-.08,0-.13,0-.52-.02-1.04-.04-1.57-.06-1.01-.05-2.02-.11-3.05-.19-.79-.06-1.59-.12-2.4-.19-.64-.06-1.29-.12-1.94-.2-.97-.1-1.94-.21-2.93-.34-.71-.08-1.41-.18-2.13-.28-1.76-.25-3.56-.53-5.4-.84l15.39-4.4,21.45-3.33-.96-6.23-36.3,5.63-2.69.42-.45.07-2.5.39-.19.03-.46.07-2.68.42-2.89.45,4.9-2.77,2.77-1.56.16-.09,2.61-1.48,34.33-19.43-3.11-5.49-34.34,19.43-2.6,1.47-.17.09-2.77,1.57-5.62,3.18,4.14-4.95,2.04-2.44,2.04-2.44,25.3-30.26-4.84-4.05-25.3,30.26-2.04,2.44-2.04,2.43-5.61,6.71,2.45-8.39,1.78-6.1,11.07-37.87-6.05-1.77-11.08,37.87-.89,3.05-.89,3.05-2.01,6.85-4.7-52.73-6.29.56,4.81,53.95-3.95-7.38-1.5-2.8-1.5-2.8-18.6-34.79-5.57,2.98,18.6,34.79,1.5,2.8,1.5,2.8,3.57,6.68-5.81-4.86-2.44-2.04-2.44-2.04-30.26-25.3-4.05,4.84,30.26,25.31,2.43,2.03,2.44,2.04,1.04.87c-1.15-.21-2.28-.4-3.41-.57-.25-.04-.5-.08-.75-.11-.27-.04-.53-.08-.8-.11l-1.6-.58-.17-.06-2.81-1.02-37.09-13.47-2.16,5.93,23.14,8.4c-.18.01-.36.02-.54.03-.31.02-.61.04-.92.06-.39.03-.78.06-1.17.1-.21.02-.42.03-.63.05-.65.06-1.3.13-1.95.2-.79.09-1.57.19-2.35.29-.74.1-1.46.2-2.18.32-.31.05-.61.1-.92.15-.28.04-.57.09-.85.14-.97.18-1.92.35-2.87.54-.61.13-1.21.25-1.82.39-.6.13-1.2.27-1.79.41-.59.14-1.18.29-1.76.44-.6.15-1.2.32-1.8.48-.27.07-.53.15-.8.22-.32.09-.65.19-.97.28-.24.07-.48.14-.72.22-.49.15-.98.3-1.46.46-.12.04-.25.08-.37.12-.44.14-.87.29-1.3.43-.6.2-1.19.41-1.78.62l-.79.29c-1.05.39-2.09.78-3.11,1.19-.25.1-.5.2-.76.31-.76.31-1.49.62-2.23.94-.21.09-.42.19-.63.28-.34.15-.67.3-1,.45-.26.11-.52.23-.77.35-.72.34-1.43.68-2.13,1.02-.28.14-.56.28-.84.41-.25.13-.5.25-.75.38-.29-3.07-.43-6.2-.43-9.37,0-16.69,3.97-31.87,11.81-45.14,7.83-13.28,18.57-23.78,31.93-31.21,13.37-7.45,28.29-11.22,44.35-11.22s30.92,3.78,44.21,11.22c13.26,7.43,23.92,17.93,31.68,31.2,7.76,13.27,11.68,28.47,11.68,45.16,0,1.62-.03,3.22-.11,4.78Z"/>
      </g>
    </g>
  </g>
</svg>