<?xml version="1.0" encoding="UTF-8"?>
<svg id="Layer_2" data-name="Layer 2" xmlns="http://www.w3.org/2000/svg" xmlns:xlink="http://www.w3.org/1999/xlink" viewBox="0 0 816.06 264.3">
  <defs>
    <style>
      .cls-1 {
        fill: #82c55d;
      }

      .cls-2 {
        fill: #f15a29;
      }

      .cls-3 {
        fill: #068c47;
      }

      .cls-4 {
        fill: #ebaf20;
      }

      .cls-5 {
        fill: url(#linear-gradient);
      }
    </style>
    <linearGradient id="linear-gradient" x1="111.64" y1="93.03" x2="236.81" y2="93.03" gradientUnits="userSpaceOnUse">
      <stop offset="0" stop-color="#068c47"/>
      <stop offset="1" stop-color="#82c55d"/>
    </linearGradient>
  </defs>
  <g id="Layer_1-2" data-name="Layer 1">
    <g>
      <g>
        <g>
          <path class="cls-2" d="M381.74,124.53v-30.98c0-5.18,2.78-8.46,7.71-8.46,4.63,0,6.73,2.41,8.46,7.16l9.38,25.86,9.13-25.86c1.67-4.75,4.32-7.16,8.46-7.16,4.75,0,7.71,3.33,7.71,7.71v31.72c0,2.59-1.79,4.63-4.32,4.63s-4.51-2.04-4.51-4.63v-28.27h-.25l-10.31,28.02c-1.11,3.08-3.09,4.88-5.92,4.88s-4.94-1.48-6.11-4.63l-10.31-28.27h-.25v28.27c0,2.59-1.73,4.63-4.38,4.63-2.47,0-4.51-2.04-4.51-4.63Z"/>
          <path class="cls-2" d="M451.61,124.47v-12.9l-13.58-19.94c-2.04-2.96.49-6.54,4.07-6.54,1.54,0,3.15.86,4.13,2.41l9.57,15.06h.31l9.81-15.06c1.05-1.61,2.53-2.41,4.07-2.41,3.64,0,5.99,3.52,4.01,6.54l-13.46,19.75v13.08c0,2.59-2.04,4.69-4.51,4.69s-4.44-2.1-4.44-4.69Z"/>
          <path class="cls-2" d="M499.99,128.42c-2.28,0-4.44-1.54-4.44-4.69v-33.95c0-3.08,2.28-4.69,4.51-4.69s4.51,1.54,4.51,4.69v29.13h15.86c2.53,0,4.75,2.16,4.75,4.81s-2.22,4.69-4.75,4.69h-20.43Z"/>
          <path class="cls-2" d="M568.25,122.98c.99,2.53-.31,6.17-4.44,6.17-2.22,0-4.01-1.36-4.94-4.57l-1.54-5.37h-17.59l-1.79,6.23c-.56,2.16-2.34,3.7-4.94,3.7-3.52,0-5.31-2.84-3.89-6.79l10.92-29.44c1.61-4.32,4.2-7.84,8.7-7.84,4.75,0,7.1,3.64,8.46,7.84l11.05,30.06ZM547.7,95.33l-5.37,14.81h12.34l-5.25-14.81h-1.73Z"/>
          <path class="cls-2" d="M571.4,106.88c0-13.89,9.57-21.79,23.45-21.79s20.24,6.11,20.24,10.31c0,2.59-2.04,4.69-4.69,4.69-1.48,0-2.41-.56-3.89-1.91-1.79-1.61-4.2-3.83-11.73-3.83-8.64,0-14.13,3.15-14.13,12.53s4.69,13.27,13.7,13.27c7.59,0,12.77-3.39,12.77-7.28v-.43h-8.15c-2.16,0-4.13-1.3-4.13-4.01,0-2.47,1.79-4.01,3.83-4.01h13.83c2.96,0,4.13,1.54,4.13,3.46v17.1c0,2.22-1.61,4.07-3.89,4.07s-3.83-1.3-4.01-3.64l-.62-7.84h-.8c-1.98,6.36-6.42,11.48-15.68,11.48-12.34,0-20.24-8.27-20.24-22.16Z"/>
          <path class="cls-2" d="M623.05,107.12c0-13.82,9.32-22.03,23.08-22.03s23.14,8.21,23.14,22.03-9.32,22.03-23.14,22.03-23.08-8.21-23.08-22.03ZM660.02,107.12c0-8.15-4.88-12.78-13.89-12.78s-13.82,4.63-13.82,12.78,4.81,12.78,13.82,12.78,13.89-4.63,13.89-12.78Z"/>
          <path class="cls-2" d="M674.34,118.29c0-2.9,2.35-4.69,4.82-4.69,2.22,0,3.08,1.3,4.38,2.78,1.67,1.91,4.01,3.7,10.37,3.7,5.74,0,10.12-1.67,10.12-5.37,0-2.96-4.32-3.52-9.51-3.95-8.15-.74-18.82-.99-18.82-12.16,0-8.83,7.47-13.52,18.39-13.52s18.33,3.64,18.33,9.63c0,2.84-2.28,4.63-4.57,4.63-1.36,0-2.22-.31-3.83-1.73-1.54-1.36-3.95-3.39-9.94-3.39-5.37,0-9.26,1.54-9.26,4.38s3.09,3.89,9.07,4.38c8.46.74,19.38.74,19.38,11.73s-9.13,14.44-19.5,14.44c-12.59,0-19.44-5.37-19.44-10.86Z"/>
        </g>
        <g>
          <path class="cls-3" d="M381.74,200.22v-50.6c0-3.96,3.13-6.99,6.72-6.99h33.49c3.86,0,7.08,3.13,7.08,7.08s-3.22,7.18-7.08,7.18h-26.77v14.54l16.74-.74c3.86-.18,4.97-.18,5.61-.18,3.59,0,6.44,2.85,6.44,6.35s-2.94,6.44-6.53,6.44c-1.01,0-2.94-.09-5.52-.18l-16.74-.55v17.48c0,3.96-2.85,7.17-6.81,7.17-3.68,0-6.62-3.13-6.62-6.99Z"/>
          <path class="cls-3" d="M428.29,174.37c0-20.61,13.89-32.84,34.41-32.84s34.5,12.24,34.5,32.84-13.89,32.84-34.5,32.84-34.41-12.23-34.41-32.84ZM483.4,174.37c0-12.14-7.27-19.04-20.7-19.04s-20.61,6.9-20.61,19.04,7.18,19.04,20.61,19.04,20.7-6.9,20.7-19.04Z"/>
          <path class="cls-3" d="M499.13,174.37c0-20.61,13.89-32.84,34.41-32.84s34.5,12.24,34.5,32.84-13.89,32.84-34.5,32.84-34.41-12.23-34.41-32.84ZM554.24,174.37c0-12.14-7.27-19.04-20.7-19.04s-20.61,6.9-20.61,19.04,7.18,19.04,20.61,19.04,20.7-6.9,20.7-19.04Z"/>
          <path class="cls-3" d="M579.17,206.11c-3.77,0-6.81-3.13-6.81-6.99v-49.49c0-3.96,3.04-6.99,6.81-6.99h18.58c23.64,0,34.13,14.54,34.13,31.65s-10.4,31.83-34.13,31.83h-18.58ZM585.89,191.94h11.96c11.87,0,20.61-4.6,20.61-17.66s-8.28-17.48-20.52-17.48h-12.05v35.14Z"/>
          <path class="cls-3" d="M706.31,198.01c1.47,3.77-.46,9.2-6.62,9.2-3.31,0-5.98-2.02-7.36-6.81l-2.3-8h-26.22l-2.67,9.29c-.83,3.22-3.5,5.52-7.36,5.52-5.24,0-7.91-4.23-5.8-10.12l16.28-43.88c2.39-6.44,6.26-11.68,12.97-11.68,7.08,0,10.58,5.43,12.6,11.68l16.47,44.8ZM675.68,156.8l-8,22.08h18.4l-7.82-22.08h-2.58Z"/>
          <path class="cls-3" d="M708.43,200.31v-50.69c0-3.77,3.13-6.99,6.72-6.99h19.87c16.1,0,25.67,8.65,25.67,22.17,0,15.18-11.78,22.54-25.76,22.54h-13.06v12.97c0,3.77-3.04,6.9-6.72,6.9s-6.72-3.13-6.72-6.9ZM721.86,173.54h12.24c8.56,0,13.25-2.3,13.25-8.46,0-6.62-4.97-8.19-12.97-8.19h-12.51v16.65Z"/>
          <path class="cls-3" d="M763.81,200.31v-50.69c0-3.77,3.13-6.99,6.72-6.99h19.87c16.1,0,25.67,8.65,25.67,22.17,0,15.18-11.78,22.54-25.76,22.54h-13.06v12.97c0,3.77-3.04,6.9-6.72,6.9s-6.72-3.13-6.72-6.9ZM777.24,173.54h12.24c8.56,0,13.25-2.3,13.25-8.46,0-6.62-4.97-8.19-12.97-8.19h-12.51v16.65Z"/>
        </g>
      </g>
      <g>
        <path class="cls-2" d="M178.65,216.81c-5.86,4.53-10.84,10.15-14.63,16.55-.74,1.24-1.43,2.51-2.07,3.81-3.73,7.49-5.88,15.89-6.04,24.76-.01.37-.01.74-.01,1.11,0,.32,0,.63.01.95-1.96.29-12.12.35-23.97.3.02-.41.02-.83.02-1.25,0-4.44-.5-8.77-1.45-12.93-2.29-4.25-4-8.87-5.02-13.74v-.02s-.01-.01-.01-.02c-2.31-4.47-5.19-8.62-8.53-12.33-3.68-4.09-7.93-7.66-12.63-10.57,5-4.89,11-8.77,17.67-11.27,3.14-1.19,6.43-2.07,9.83-2.61,2.63-.42,5.33-.64,8.09-.64,1.45,0,2.89.06,4.3.18h0c3.76.32,7.39,1.03,10.86,2.11,9.29,2.9,17.43,8.38,23.58,15.61Z"/>
        <path class="cls-3" d="M236.07,217.05c-.96.55-1.89,1.12-2.81,1.73-2.51,1.64-4.89,3.47-7.11,5.48-4.35,3.91-8.11,8.46-11.12,13.51-4.64,7.73-7.53,16.62-8.13,26.12h-43.46c-.02-.28-.02-.57-.02-.85,0-9.37,2.53-18.14,6.95-25.68,2.52-4.3,5.66-8.2,9.29-11.58,1.09-1.03,2.24-2,3.43-2.92,1.97-1.53,4.05-2.92,6.24-4.16.13-.07.26-.15.4-.21,7.28-4.03,15.66-6.32,24.56-6.32,3.52,0,6.96.35,10.27,1.03,2.83.58,5.58,1.4,8.22,2.43,1.11.43,2.21.91,3.29,1.42Z"/>
        <path class="cls-3" d="M124.43,263.04c0,.41,0,.81-.01,1.22-17.57-.11-35.87-.37-35.87-.37h-25.79c-14,0-26-10.03-28.45-23.82l-1.37-7.67c4.27-5.65,9.7-10.39,15.93-13.85,2.09-1.16,4.27-2.18,6.53-3.04.82-.32,1.66-.61,2.5-.88,4.94-1.6,10.2-2.46,15.66-2.46,6.67,0,13.05,1.28,18.89,3.62,2.38.95,4.66,2.07,6.85,3.36,7.1,4.17,13.09,10.01,17.43,16.98.57.9,1.11,1.83,1.62,2.77,2.3,4.26,4.01,8.87,5.02,13.75h0c.69,3.36,1.06,6.83,1.06,10.39Z"/>
        <path class="cls-3" d="M73.56,204.64c8.5,0,16.58,1.83,23.87,5.11,7.9-8.38,18.24-14.43,29.88-16.99,2.86-.64,5.79-1.06,8.79-1.25.35.26.71.53,1.05.81.27-.31.54-.61.82-.9.65-.03,1.29-.04,1.94-.04,2.69,0,5.33.18,7.92.54,14.59,1.98,27.48,9.37,36.59,20.09-.21.41-.41.81-.59,1.23.35-.22.71-.44,1.08-.65,3.43-2.01,7.09-3.68,10.92-4.95,5.81-1.95,12.02-3,18.47-3,2.51,0,5,.16,7.43.47,3.01.38,5.94.99,8.79,1.82,4.96,1.43,9.65,3.51,13.96,6.12,6.43-2.45,13.41-3.79,20.7-3.79,5.21,0,10.26.68,15.08,1.98,3.62.96,7.1,2.26,10.41,3.88-8.86-20.99-29.65-35.77-53.83-35.77-7.6,0-14.86,1.46-21.52,4.11-10.45-9.85-24.53-15.89-40-15.89s-28.67,5.67-39.02,14.99c-8.92-5.51-19.42-8.7-30.65-8.7-23.81,0-44.34,14.32-53.42,34.81,3.21-1.26,6.55-2.24,9.99-2.92,3.67-.73,7.46-1.11,11.35-1.11Z"/>
        <path class="cls-4" d="M265.17,263.04c0,.29,0,.57-.01.85h-50.73c.17-2.22.47-4.4.9-6.52h0c1.49-7.21,4.49-13.86,8.67-19.6.37-.51.75-1.02,1.14-1.51,2.49-3.17,5.36-6.04,8.53-8.54,3.08-2.43,6.45-4.52,10.05-6.2,6.02,4.27,11.06,9.83,14.74,16.25,4.27,7.45,6.71,16.07,6.71,25.27Z"/>
        <path class="cls-3" d="M311.09,245.76c-4.31,10.77-14.83,18.13-26.82,18.13h-11.59c.01-.28.01-.57.01-.85,0-9.04-2.07-17.62-5.76-25.27-3.58-7.42-8.69-13.98-14.9-19.26,4.19-1.12,8.59-1.72,13.14-1.72,6.94,0,13.56,1.39,19.6,3.92,1.54.64,3.04,1.36,4.5,2.15,1.62.87,3.19,1.83,4.7,2.87,7.32,5.03,13.26,11.94,17.12,20.03Z"/>
        <path class="cls-1" d="M337.25,102.78s-.01.05-.01.07l-.97,5.42s-6.54,35.34-6.57,36.75c0,.02-.01.05-.02.08l-16.96,94.97c-.35,1.98-.9,3.89-1.63,5.69-4.31,10.77-14.83,18.13-26.82,18.13h-127.27c-.33,0-.65.02-.97.08-.04.01-.08.01-.12.02-1.96.29-12.12.35-23.97.3-2.45,0-4.98-.01-7.52-.03-17.57-.11-35.87-.37-35.87-.37h-25.79c-14,0-26-10.03-28.45-23.82l-1.37-7.67-1.82-10.2h-.01l-11.26-63-7.65-42.84-2.42-13.51s-.01-.06-.02-.09c-.61-3.63,2.28-6.91,5.96-6.91h20.54c-.07.07-.14.15-.21.24-.19.23-.32.45-.42.66-.18.49-.22.98-.12,1.55l2.42,13.46,10.96,61.43,4.94,32.14.4,2.6,1.17,7.58,2.19,14.28c.45,2.89,2.9,5.04,5.82,5.11l53.32,1.23,8.75.2,36.47.84,8.42.19,17.88.41h96.02c1.36,0,2.51-.96,2.74-2.28l2.26-12.63,1.38-7.73,9-50.39,7.92-44.42,1.53-8.55,2.44-13.52c.09-.52.03-1.01-.14-1.49-.1-.22-.23-.42-.38-.63-.07-.11-.16-.19-.23-.28h20.51c3.68,0,6.59,3.3,5.95,6.93Z"/>
        <g>
          <path class="cls-1" d="M348.44,72.73H0L59.01,10.85c6.6-6.93,15.76-10.85,25.33-10.85h181.2c9.72,0,19.01,4.04,25.63,11.16l57.27,61.57Z"/>
          <polygon class="cls-3" points="235.96 72.73 112.48 72.73 137.06 0 211.99 0 235.96 72.73"/>
          <path class="cls-3" d="M71.04,140.98h-30.45C18.17,140.98,0,110.43,0,72.73h111.64c0,37.69-18.17,68.25-40.6,68.25Z"/>
          <path class="cls-5" d="M196.21,113.33h-43.98c-22.42,0-40.6-18.17-40.6-40.6h125.17c0,22.42-18.18,40.6-40.6,40.6Z"/>
          <path class="cls-3" d="M307.85,140.98h-30.45c-22.42,0-40.6-30.55-40.6-68.25h111.64c0,37.69-18.18,68.25-40.6,68.25Z"/>
        </g>
      </g>
    </g>
  </g>
</svg>